<svg xmlns="http://www.w3.org/2000/svg" xml:space="preserve" version="1.1"
  viewBox="0 0 144.6 144.6">
  <g fill="none">
  <path
    d="M48.8 95.8h47.1v-47H48.8zm6.2-9.1h-.9v-.5q-.45.6-1.2.6c-1 0-1.7-.8-1.7-2.1s.7-2.1 1.7-2.1c.5 0 .9.2 1.2.5V81h.9zm0-8.1h-.9v-.5q-.45.6-1.2.6c-1 0-1.7-.8-1.7-2.1s.7-2.1 1.7-2.1c.5 0 .9.2 1.2.5v-2.1h.9zm2.8 7.5q.6 0 .9-.6h1c-.2.9-.9 1.3-1.9 1.3-1.3 0-2-.8-2-2.2 0-1.2.8-2.1 2-2.1.7 0 1.3.3 1.5.8.2.4.3 1 .3 1.6h-2.9c.1.7.4 1.2 1.1 1.2M57 74.6v4.1h-1v-4.1zm-1-.7v-1h1v1zm4.4-7.4v4.1h-.9v-4.1zm-.9-.7v-1h.9v1zm2.5 21c-1.1 0-1.8-.5-1.8-1.4h1c0 .5.3.7.9.7.4 0 .7-.2.7-.5 0-.4-.5-.5-1-.6-.7-.2-1.5-.3-1.5-1.2 0-.7.7-1.2 1.7-1.2 1.1 0 1.7.5 1.7 1.4h-.9c0-.5-.3-.7-.8-.7-.4 0-.7.2-.7.5 0 .4.6.5 1.2.7s1.3.4 1.3 1.2c-.1.6-.7 1.1-1.8 1.1m2.5-16.2h-3.3v-.7l2.3-2.6h-2.2v-.7h3.1v.7l-2.2 2.6h2.3zm1 16.1h-.9v-4.1h.9zm0-4.8h-.9v-1h.9zm.6-14.7h-1.2v-.7H68v.7l-2.2 2.6h2.3v.7h-3.3v-.7l2.3-2.6zm4 18.9c0 1.3-.4 2.2-1.9 2.2-1 0-1.7-.5-1.7-1.3h1c0 .4.3.6.8.6.6 0 1-.4 1-1.2V86c-.3.4-.8.6-1.2.6-1 0-1.6-.8-1.6-2 0-1.1.7-2 1.7-2 .5 0 1 .2 1.2.6v-.5h.9v3.4zm4.6.6h-.9v-2.3c0-.6-.1-1.1-.7-1.1s-.9.4-.9 1.4v2h-.9v-4.1h.7v.5c.3-.4.8-.6 1.3-.6.6 0 .9.2 1.1.6.2.3.2.7.2 1.2v2.4zm.9-19.4h-.4c-.8 0-1.1.5-1.1 1.5v1.8h-.9v-4.1h.9v.6c.3-.4.6-.6 1.1-.6h.4zm2.3-.9c1.2 0 2 .9 2 2.1 0 1.3-.8 2.1-2 2.1s-2-.9-2-2.1c0-1.3.8-2.1 2-2.1m-3.5-8.1c1.2 0 2 .9 2 2.1 0 1.3-.8 2.1-2 2.1s-2-.9-2-2.1.8-2.1 2-2.1m-3.8-1.5h.9v1h-.9zm0 1.6h.9v4.1h-.9zm1.5 8.8c.2.4.3 1 .3 1.6h-2.9c0 .7.4 1.2 1 1.2q.6 0 .9-.6h1c-.2.9-.9 1.3-1.9 1.3-1.3 0-2-.8-2-2.2 0-1.2.8-2.1 2-2.1.8 0 1.3.3 1.6.8m-8.4-8.8h.8v.5c.2-.4.7-.6 1.2-.6s.9.2 1.1.7c.3-.5.8-.7 1.4-.7.4 0 .8.1 1 .4q.3.45.3 1.2v2.5h-.9V60c0-.5-.1-1-.7-1-.7 0-.9.6-.9 1.4v2h-.9V60c0-.5-.1-1-.7-1-.7 0-.9.6-.9 1.4v2h-.9v-4zm-2.7-.1c.7 0 1.3.3 1.5.8.2.4.3 1 .3 1.6H60c0 .7.4 1.2 1 1.2q.6 0 .9-.6h1c-.2.9-.9 1.3-1.9 1.3-1.3 0-2-.8-2-2.2 0-1.2.7-2.1 2-2.1m-4.7.1h.9v.6c.3-.4.6-.6 1.1-.6h.4v.8h-.4c-.8 0-1.1.5-1.1 1.5v1.8h-.9zm.2 10.1.3 1.2h.1l.3-1.2.6-2h1l-1.4 4.1h-1.1l-1.4-4.1h1zm-5.1-11.7h1.8c.5 0 1.1 0 1.5.3.5.3.8.9.8 1.5 0 .7-.3 1.2-.8 1.5q-.45.3-1.5.3h-.8v2.1h-1zm1.3 12c-.7-.2-1.5-.3-1.5-1.2 0-.7.7-1.2 1.7-1.2 1.1 0 1.7.5 1.7 1.4h-.9c0-.5-.3-.7-.8-.7-.4 0-.7.2-.7.5 0 .4.6.5 1.2.7s1.3.4 1.3 1.2-.7 1.3-1.7 1.3c-1.1 0-1.8-.5-1.8-1.4h1c0 .5.3.7.9.7.4 0 .7-.2.7-.5-.2-.5-.6-.6-1.1-.8"
  />
  <path
    d="M70.5 67.1c-.5 0-.9.4-1 1h1.9c0-.7-.4-1-.9-1M54.1 59.4c.3-.2.5-.5.5-.9s-.2-.7-.5-.8c-.2-.1-.5-.1-.8-.1h-.8v2h.8c.3 0 .6-.1.8-.2M60.9 59c-.5 0-.9.4-1 1h1.9c0-.6-.4-1-.9-1M57.7 83.2c-.5 0-.9.4-1 1h1.9c0-.6-.4-1-.9-1M53.1 75.2c-.6 0-1 .5-1 1.4 0 .8.4 1.4 1 1.4s1-.5 1-1.4c-.1-.9-.4-1.4-1-1.4M68.2 83.3c-.6 0-.9.5-.9 1.3s.4 1.3.9 1.3c.6 0 1-.5 1-1.2 0-.9-.4-1.4-1-1.4M77.9 69.9c.7 0 1.1-.5 1.1-1.4s-.4-1.4-1-1.4c-.7 0-1 .5-1 1.4-.1.9.3 1.4.9 1.4M74.4 61.9c.7 0 1.1-.5 1.1-1.4s-.4-1.4-1-1.4c-.7 0-1 .5-1 1.4-.1.8.3 1.4.9 1.4M77.9 31.8c.6 0 1-.5 1-1.4 0-.8-.4-1.4-1-1.4s-1 .5-1 1.4c0 .8.4 1.4 1 1.4M72.7 20.9c-.5 0-.9.4-1 1h1.9c.1-.7-.4-1-.9-1M54.1 27.8c-.3-.2-.7-.3-1.3-.3h-.6v4.1h.6c.6 0 1.1-.1 1.4-.4.4-.3.6-.8.6-1.6 0-.9-.2-1.5-.7-1.8M96.7 7.6v40.3H137A68.8 68.8 0 0 0 96.7 7.6M24.3 83.3c-.6 0-.9.5-.9 1.3s.4 1.3.9 1.3c.6 0 1-.5 1-1.2 0-.9-.4-1.4-1-1.4M68.6 29c-.6 0-.9.5-.9 1.3s.4 1.3.9 1.3c.6 0 1-.5 1-1.2 0-.9-.4-1.4-1-1.4M58.3 28.9c-.5 0-.9.4-1 1h1.9c.1-.6-.3-1-.9-1M82.7 20.9c-.5 0-.9.4-1 1h1.9c0-.7-.4-1-.9-1M85.1 28.9c-.5 0-.9.4-1 1H86c.1-.6-.4-1-.9-1M9.2 75.2c-.6 0-1 .5-1 1.4 0 .8.4 1.4 1 1.4s1-.5 1-1.4-.4-1.4-1-1.4M47.9 137V96.7H7.6A68.8 68.8 0 0 0 47.9 137M12.9 76.2h1.9c0-.7-.4-1-1-1-.5-.1-.9.3-.9 1M10.2 59.4c.3-.2.5-.5.5-.9s-.2-.7-.5-.8c-.2-.1-.5-.1-.8-.1h-.8v2h.8c.3 0 .6-.1.8-.2M9.2 83.3c-.6 0-1 .5-1 1.4 0 .8.4 1.4 1 1.4s1-.5 1-1.4-.4-1.4-1-1.4M27.9 67.1c-.5 0-.9.4-1 1h1.9c0-.7-.4-1-.9-1M13.9 83.2c-.5 0-.9.4-1 1h1.9c0-.6-.4-1-.9-1"
  />
  <path
    d="M3.2 72.3c0 8.1 1.4 16 4.1 23.5h40.6v-47H7.3c-2.8 7.5-4.1 15.4-4.1 23.5m7.9 14.4h-.9v-.5q-.45.6-1.2.6c-1 0-1.7-.8-1.7-2.1S8 82.6 9 82.6c.5 0 .9.2 1.2.5V81h.9zm0-8.1h-.9v-.5q-.45.6-1.2.6c-1 0-1.7-.8-1.7-2.1S8 74.5 9 74.5c.5 0 .9.2 1.2.5v-2.1h.9zm2.8 7.5q.6 0 .9-.6h1c-.2.9-.9 1.3-1.9 1.3-1.3 0-2-.8-2-2.2 0-1.2.8-2.1 2-2.1.7 0 1.3.3 1.5.8.2.4.3 1 .3 1.6h-2.9c.1.7.4 1.2 1.1 1.2m3.2-19.6v4.1h-.9v-4.1zm-1-.7v-1h.9v1zm2 21c-1.1 0-1.8-.5-1.8-1.4h1c0 .5.3.7.9.7.4 0 .7-.2.7-.5 0-.4-.5-.5-1-.6-.7-.2-1.5-.3-1.5-1.2 0-.7.7-1.2 1.7-1.2 1.1 0 1.7.5 1.7 1.4h-.9c0-.5-.3-.7-.8-.7-.4 0-.7.2-.7.5 0 .4.6.5 1.2.7s1.3.4 1.3 1.2c-.1.6-.7 1.1-1.8 1.1m3.5-.1h-.9v-4.1h.9zm4.6-.6c0 1.3-.4 2.2-1.9 2.2-1 0-1.7-.5-1.7-1.3h1c0 .4.3.6.8.6.6 0 1-.4 1-1.2V86c-.3.4-.8.6-1.2.6-1 0-1.6-.8-1.6-2 0-1.1.7-2 1.7-2 .5 0 1 .2 1.2.6v-.5h.9v3.4zm4.4-3c.2.3.2.7.2 1.2v2.3h-.9v-2.3c0-.6-.1-1.1-.7-1.1s-.9.4-.9 1.4v2h-.9v-4.1h.9v.5c.3-.4.8-.6 1.3-.6.4.2.8.4 1 .7m-2.7-16.7c.7 0 1.3.3 1.5.8.2.4.3 1 .3 1.6h-2.9c0 .7.4 1.2 1 1.2q.6 0 .9-.6h1c-.2.9-.9 1.3-1.9 1.3-1.3 0-2-.8-2-2.2.2-1.2.9-2.1 2.1-2.1m-4.4 2.4c-.7-.2-1.5-.3-1.5-1.2 0-.7.7-1.2 1.7-1.2 1.1 0 1.7.5 1.7 1.4h-.9c0-.5-.3-.7-.8-.7-.4 0-.7.2-.7.5 0 .4.6.5 1.2.7s1.3.4 1.3 1.2-.7 1.3-1.7 1.3c-1.1 0-1.8-.5-1.8-1.4h1c0 .5.3.7.9.7.4 0 .7-.2.7-.5-.2-.5-.6-.6-1.1-.8m-1.9 13.1h-.9v-1h.9zm-1.5-13.7c.6.2 1.3.4 1.3 1.2s-.7 1.3-1.7 1.3c-1.1 0-1.8-.5-1.8-1.4h1c0 .5.3.7.9.7.4 0 .7-.2.7-.5 0-.4-.5-.5-1-.6-.7-.2-1.5-.3-1.5-1.2 0-.7.7-1.2 1.7-1.2 1.1 0 1.7.5 1.7 1.4h-.9c0-.5-.3-.7-.8-.7-.4 0-.7.2-.7.5-.1.3.5.4 1.1.5M17 58.4h1.2l.5.9c.1.1.2.3.2.4.1-.1.2-.3.2-.5l.5-.9h1l-1.3 2 1.4 2.1h-1.1l-.5-.9c-.1-.1-.3-.5-.3-.6 0 .1-.2.4-.3.5l-.6 1h-1.1l1.4-2.1zm-1.6-1.6h.9v1h-.9zm0 1.6h.9v4.1h-.9zm0 16.9c.2.4.3 1 .3 1.6h-2.9c0 .7.4 1.2 1 1.2q.6 0 .9-.6h1c-.2.9-.9 1.3-1.9 1.3-1.3 0-2-.8-2-2.2 0-1.2.8-2.1 2-2.1.8 0 1.4.3 1.6.8m-.4-4.7h-.9V70c-.3.4-.8.6-1.3.6s-.9-.2-1.1-.5-.2-.7-.2-1.3v-2.3h.9v2.3c0 .6.1 1.1.7 1.1.3 0 .5-.1.7-.3s.3-.5.3-1v-2.1h.9zm-2.6-12.2h.9v.6c.3-.4.6-.6 1.1-.6h.4v.8h-.4c-.8 0-1.1.5-1.1 1.5v1.8h-.9zm-4.8-1.6h1.8c.6 0 1.1 0 1.5.3.5.3.8.9.8 1.5 0 .7-.3 1.2-.8 1.5q-.45.3-1.5.3h-.8v2.1h-1zM9 66.4c1.1 0 1.7.5 1.7 1.4h-1c0-.5-.3-.7-.8-.7-.4 0-.7.2-.7.5 0 .4.6.5 1.2.7s1.3.4 1.3 1.2-.7 1.3-1.7 1.3c-1.1 0-1.8-.5-1.8-1.4h1c0 .3.3.6.8.6.4 0 .7-.2.7-.5 0-.4-.5-.5-1-.6-.7-.2-1.5-.3-1.5-1.2.1-.8.7-1.3 1.8-1.3M53.1 83.3c-.6 0-1 .5-1 1.4 0 .8.4 1.4 1 1.4s1-.5 1-1.4c-.1-.9-.4-1.4-1-1.4M54.3 116.2c-.3-.2-.7-.3-1.3-.3h-.6v4.1h.6c.6 0 1.1-.1 1.4-.4.4-.3.6-.8.6-1.6 0-.9-.2-1.4-.7-1.8M54.1 125.6c-.2-.5-.4-1.1-.5-1.6-.2.5-.3 1.1-.5 1.6l-.3.9h1.7zM69.1 120c.6 0 1-.5 1-1.2 0-.8-.4-1.3-1-1.3s-.9.5-.9 1.3c0 .7.3 1.2.9 1.2"
  />
  <path
    d="M48.8 137.3c7.5 2.7 15.4 4.1 23.5 4.1s16-1.4 23.5-4.1V96.7h-47zm12.5-8.4H60l-.4-2c-.1-.4-.2-.8-.3-1.3h-.1c-.1.4-.2.8-.3 1.3l-.5 2h-1.2l-1-4.1h1l.4 2c.1.4.1.8.2 1.2h.2c.1-.4.2-.8.2-1.2l.5-2H60l.5 2c.1.4.2.8.2 1.2h.1c.1-.4.1-.8.2-1.2l.4-2h.9zm-2.6-8.7q.6 0 .9-.6h1c-.2.9-.9 1.3-1.9 1.3-1.3 0-2-.8-2-2.2 0-1.2.8-2.1 2-2.1.7 0 1.3.3 1.5.8.2.4.3 1 .3 1.6h-2.9c.1.7.4 1.2 1.1 1.2m6.7 8.7v-.5c-.3.4-.7.6-1.4.6-.9 0-1.4-.4-1.4-1.2 0-1.3 1.6-1.3 2.7-1.4v-.2c0-.5-.2-.8-.7-.8s-.8.3-.8.7h-1c0-.8.7-1.3 1.8-1.3 1.3 0 1.7.7 1.7 1.8v1.1c0 .4 0 .8.1 1.3h-1zm.9-8.1h-.9v-4.1h.9zm0-4.7h-.9v-1h.9zm3.3 9.5h-.4c-.8 0-1.1.5-1.1 1.5v1.8h-.9v-4.1h.9v.6c.3-.4.6-.6 1.1-.6h.4zm4.2 3.3h-.9v-.5q-.45.6-1.2.6c-1 0-1.7-.8-1.7-2.1s.7-2.1 1.7-2.1c.5 0 .9.2 1.2.5v-2.1h.9zm-1.7-12.1h.9v.5c.3-.4.8-.6 1.3-.6.6 0 .9.2 1.1.6.2.3.2.7.2 1.2v2.3h-.9v-2.3c0-.6-.1-1.1-.7-1.1s-.9.4-.9 1.4v2h-.9v-4zm-2.2-5.8c-.7-.2-1.5-.3-1.5-1.2 0-.7.7-1.2 1.7-1.2 1.1 0 1.7.5 1.7 1.4h-.9c0-.5-.3-.7-.8-.7-.4 0-.7.2-.7.5 0 .4.6.5 1.2.7s1.3.4 1.3 1.2-.7 1.3-1.7 1.3c-1.1 0-1.8-.5-1.8-1.4h1c0 .5.3.7.9.7.4 0 .7-.2.7-.5-.1-.5-.6-.6-1.1-.8m-1 5.7c.5 0 1 .2 1.2.6v-.5h.9v3.5c0 1.3-.4 2.2-1.9 2.2-1 0-1.7-.5-1.7-1.3h1c0 .4.3.6.8.6.6 0 1-.4 1-1.2v-.4c-.3.4-.8.6-1.2.6-1 0-1.6-.8-1.6-2-.2-1.2.5-2.1 1.5-2.1m-3.1-5.7c-.7-.2-1.5-.3-1.5-1.2 0-.7.7-1.2 1.7-1.2 1.1 0 1.7.5 1.7 1.4h-.9c0-.5-.3-.7-.8-.7-.4 0-.7.2-.7.5 0 .4.6.5 1.2.7s1.3.4 1.3 1.2-.7 1.3-1.7 1.3c-1.1 0-1.8-.5-1.8-1.4h1c0 .5.3.7.9.7.4 0 .7-.2.7-.5-.1-.5-.5-.6-1.1-.8m-1.3 7h-.9c0-.5-.3-.7-.8-.7-.4 0-.7.2-.7.5 0 .4.6.5 1.2.7s1.3.4 1.3 1.2-.7 1.3-1.7 1.3c-1.1 0-1.8-.5-1.8-1.4h1c0 .5.3.7.9.7.4 0 .7-.2.7-.5 0-.4-.5-.5-1-.6-.7-.2-1.5-.3-1.5-1.2 0-.7.7-1.2 1.7-1.2 1-.2 1.6.3 1.6 1.2m-2-11h.9v1h-.9zm0 1.7h.9v4.1h-.9zm-5.6 0 .4 2c.1.4.1.8.2 1.2h.1c.1-.4.2-.8.2-1.2l.5-2h1.3l.5 2c.1.4.2.8.2 1.2h.1c.1-.4.1-.8.2-1.2l.4-2h.9l-1 4.1h-1.3l-.4-2c-.1-.4-.2-.8-.3-1.3h-.1c-.1.4-.2.8-.3 1.3l-.5 2h-1.2l-1-4.1zm-.8 9.2c0 .8-.2 1.4-.6 1.9-.5.6-1.2.9-2.2.9h-1.8V115h1.7c.6 0 1.2.1 1.6.3.8.6 1.3 1.4 1.3 2.6m-2.9-7.6c-.9-.3-1.9-.5-1.9-1.7 0-1 .8-1.6 2.1-1.6s2 .7 2.1 1.9h-1c0-.7-.5-1.1-1.1-1.1-.5 0-1 .3-1 .8s.5.8 1.5 1c.9.3 1.8.6 1.8 1.6s-.9 1.7-2.2 1.7c-1.4 0-2.3-.8-2.3-2h1c0 .8.5 1.2 1.2 1.2s1.1-.3 1.1-.8c0-.6-.7-.8-1.3-1m-.3 12.9h1.2l2.1 5.7h-1.1l-.5-1.5h-2.3l-.5 1.5h-1z"
  />
  <path
    d="M63.6 127.7c0 .3.2.6.7.6.6 0 1-.3 1-1.2v-.1c-.7.1-1.7 0-1.7.7M58.6 117.3c-.5 0-.9.4-1 1h1.9c0-.6-.4-1-.9-1M71.9 125.5c-.6 0-1 .5-1 1.4 0 .8.4 1.4 1 1.4s1-.5 1-1.4-.4-1.4-1-1.4M7.6 47.9h40.3V7.6c-18.7 7-33.3 21.6-40.3 40.3M48.8 7.3v40.6h47.1V7.3c-7.5-2.7-15.4-4.1-23.5-4.1-8.2 0-16.1 1.3-23.6 4.1M53 21.9c-.9-.3-1.9-.5-1.9-1.7 0-1 .8-1.6 2.1-1.6s2 .7 2.1 1.9h-1c0-.7-.5-1.1-1.1-1.1-.5 0-1 .3-1 .8s.5.8 1.5 1c.9.3 1.8.6 1.8 1.6s-.9 1.7-2.2 1.7c-1.4 0-2.3-.8-2.3-2h1c0 .8.5 1.2 1.2 1.2s1.1-.3 1.1-.8c0-.6-.6-.8-1.3-1m2.3 9.6c-.5.6-1.2.9-2.2.9h-1.8v-5.7H53c.6 0 1.2.1 1.6.3.9.4 1.3 1.3 1.3 2.5 0 .8-.2 1.5-.6 2m.6-9.2c0-1.3.7-2.1 1.9-2.1 1.1 0 1.7.6 1.8 1.5h-1c-.1-.5-.4-.8-.8-.8-.6 0-1 .6-1 1.4s.4 1.4 1 1.4c.5 0 .8-.3.8-.8h1q-.15 1.5-1.8 1.5c-1.2.1-1.9-.8-1.9-2.1m2.5 9.5q.6 0 .9-.6h1c-.2.9-.9 1.3-1.9 1.3-1.3 0-2-.8-2-2.2 0-1.2.8-2.1 2-2.1.7 0 1.3.3 1.5.8.2.4.3 1 .3 1.6h-2.9c.1.7.4 1.2 1.1 1.2m1.9-13.2h.9v2.2q.45-.6 1.2-.6c.5 0 .9.2 1.2.5.2.3.2.7.2 1.3v2.3h-.9V22c0-.6-.1-1.1-.7-1.1s-.9.4-.9 1.4v2h-.9v-5.7zm2.2 13.9c-1.1 0-1.8-.5-1.8-1.4h1c0 .5.3.7.9.7.4 0 .7-.2.7-.5 0-.4-.5-.5-1-.6-.7-.2-1.5-.3-1.5-1.2 0-.7.7-1.2 1.7-1.2 1.1 0 1.7.5 1.7 1.4h-.9c0-.5-.3-.7-.8-.7-.4 0-.7.2-.7.5 0 .4.6.5 1.2.7s1.3.4 1.3 1.2c0 .6-.7 1.1-1.8 1.1m2.9-12.2.4 2c.1.4.1.8.2 1.2h.1c.1-.4.2-.8.2-1.2l.5-2h1.3l.5 2c.1.4.2.8.2 1.2h.1c.1-.4.1-.8.2-1.2l.4-2h.9l-1 4.1h-1.3l-.4-2c-.1-.4-.2-.8-.3-1.3h-.1c-.1.4-.2.8-.3 1.3l-.5 2h-1.2l-1-4.1zm.5 12.1H65v-4.1h.9zm0-4.7H65v-1h.9zm4.6 4.1c0 1.3-.4 2.2-1.9 2.2-1 0-1.7-.5-1.7-1.3h1c0 .4.3.6.8.6.6 0 1-.4 1-1.2v-.4c-.3.4-.8.6-1.2.6-1 0-1.6-.8-1.6-2 0-1.1.7-2 1.7-2 .5 0 1 .2 1.2.6v-.5h.9v3.4zm18.3.6h-.9v-4.1h.9zm2.3-1.7c-.7-.2-1.5-.3-1.5-1.2 0-.7.7-1.2 1.7-1.2 1.1 0 1.7.5 1.7 1.4h-1c0-.5-.3-.7-.8-.7-.4 0-.7.2-.7.5 0 .4.6.5 1.2.7s1.3.4 1.3 1.2-.7 1.3-1.7 1.3c-1.1 0-1.8-.5-1.8-1.4h1c0 .5.3.7.9.7.4 0 .7-.2.7-.5-.1-.6-.5-.7-1-.8m-2.3-3h-.9v-1h.9zm-3.4-7.4h.9v.6c.3-.4.6-.6 1.1-.6h.4v.8h-.4c-.8 0-1.1.5-1.1 1.5v1.8h-.9zm1.3 8.8c.2.4.3 1 .3 1.6h-2.9c0 .7.4 1.2 1 1.2q.6 0 .9-.6h1c-.2.9-.9 1.3-1.9 1.3-1.3 0-2-.8-2-2.2 0-1.2.8-2.1 2-2.1.8-.1 1.4.3 1.6.8m-3.9-8.9c.7 0 1.3.3 1.5.8.2.4.3 1 .3 1.6h-2.9c0 .7.4 1.2 1 1.2q.6 0 .9-.6h1c-.2.9-.9 1.3-1.9 1.3-1.3 0-2-.8-2-2.2.1-1.2.8-2.1 2.1-2.1m-2.2 8.2h.9v.6c.3-.4.6-.6 1.1-.6h.4v.8h-.4c-.8 0-1.1.5-1.1 1.5v1.8h-.9zm-3.5-4.8 2.3-2.6h-2.2v-.7h3.1v.7l-2.2 2.6h2.3v.7h-3.3zm1 4.7c1 0 1.7.8 1.7 2.1s-.7 2.1-1.7 2.1c-.5 0-.9-.2-1.2-.5v2H76v-5.6h.9v.5c.2-.4.7-.6 1.2-.6m-2.6-9.7h.9v1h-.9zm0 1.7h.9v4.1h-.9zm-.5 9.8v2.3h-.9v-2.3c0-.6-.1-1.1-.7-1.1s-.9.4-.9 1.4v2h-.9v-4.1h.9v.5c.3-.4.8-.6 1.3-.6.6 0 .9.2 1.1.6.1.3.1.8.1 1.3m-.7-9.1c.2.4.3 1 .3 1.6h-2.9c0 .7.4 1.2 1 1.2q.6 0 .9-.6h1c-.2.9-.9 1.3-1.9 1.3-1.3 0-2-.8-2-2.2 0-1.2.8-2.1 2-2.1.8 0 1.4.3 1.6.8M104.7 77.5c0 .3.2.6.7.6.6 0 1-.3 1-1.2v-.2c-.8.1-1.7.1-1.7.8M105.7 83.2c-.5 0-.9.4-1 1h1.9c0-.6-.4-1-.9-1M116.1 83.3c-.6 0-.9.5-.9 1.3s.4 1.3.9 1.3c.6 0 1-.5 1-1.2 0-.9-.4-1.4-1-1.4M118.4 67.1c-.5 0-.9.4-1 1h1.9c0-.7-.4-1-.9-1M102 59.4c.3-.2.5-.5.5-.9s-.2-.7-.5-.8c-.2-.1-.5-.1-.8-.1h-.8v2h.8c.3 0 .6-.1.8-.2M101 83.3c-.6 0-1 .5-1 1.4 0 .8.4 1.4 1 1.4s1-.5 1-1.4-.4-1.4-1-1.4M108.8 59c-.5 0-.9.4-1 1h1.9c.1-.6-.3-1-.9-1M101 75.2c-.6 0-1 .5-1 1.4 0 .8.4 1.4 1 1.4s1-.5 1-1.4-.4-1.4-1-1.4"
  />
  <path
    d="M137.3 48.8H96.7v47.1h40.6c2.7-7.5 4.1-15.4 4.1-23.5 0-8.2-1.4-16.1-4.1-23.6m-18.7 8h.9v1h-.9zm0 1.6h.9v4.1h-.9zm-7 0h.8v.5c.2-.4.7-.6 1.2-.6s.9.2 1.1.7c.3-.5.8-.7 1.4-.7.4 0 .8.1 1 .4q.3.45.3 1.2v2.5h-.9V60c0-.5-.1-1-.7-1-.7 0-.9.6-.9 1.4v2h-.9V60c0-.5-.1-1-.7-1-.7 0-.9.6-.9 1.4v2h-.9v-4zm2.5 8.8h-1.2v-.7h3.1v.7l-2.2 2.6h2.3v.7h-3.3v-.7l2.3-2.6zm-5.2-8.9c.7 0 1.3.3 1.5.8.2.4.3 1 .3 1.6h-2.9c0 .7.4 1.2 1 1.2q.6 0 .9-.6h1c-.2.9-.9 1.3-1.9 1.3-1.3 0-2-.8-2-2.2.1-1.2.9-2.1 2.1-2.1m-1.5 7.5v-1h.9v1zm.9.7v4.1h-.9v-4.1zm-4.1-8.1h.9v.6c.3-.4.6-.6 1.1-.6h.4v.8h-.4c-.8 0-1.1.5-1.1 1.5v1.8h-.9zm.3 10.1.3 1.2h.1l.3-1.2.6-2h1l-1.4 4.1h-1.1l-1.4-4.1h1zm-5.1-11.7h1.8c.5 0 1.1 0 1.5.3.5.3.8.9.8 1.5 0 .7-.3 1.2-.8 1.5q-.45.3-1.5.3h-.8v2.1h-1zm1.2 12c-.7-.2-1.5-.3-1.5-1.2 0-.7.7-1.2 1.7-1.2 1.1 0 1.7.5 1.7 1.4h-.9c0-.5-.3-.7-.8-.7-.4 0-.7.2-.7.5 0 .4.6.5 1.2.7s1.3.4 1.3 1.2-.7 1.3-1.7 1.3c-1.1 0-1.8-.5-1.8-1.4h1c0 .5.3.7.9.7.4 0 .7-.2.7-.5-.1-.5-.6-.6-1.1-.8m2.3 17.9h-.9v-.5q-.45.6-1.2.6c-1 0-1.7-.8-1.7-2.1s.7-2.1 1.7-2.1c.5 0 .9.2 1.2.5V81h.9zm0-8.1h-.9v-.5q-.45.6-1.2.6c-1 0-1.7-.8-1.7-2.1s.7-2.1 1.7-2.1c.5 0 .9.2 1.2.5v-2.1h.9zm2.7-3.5c-.5 0-.8.3-.8.7h-1c0-.8.7-1.3 1.8-1.3 1.3 0 1.7.7 1.7 1.8v1.1c0 .4 0 .8.1 1.3h-.9v-.5c-.3.4-.7.6-1.4.6-.9 0-1.4-.4-1.4-1.2 0-1.3 1.6-1.3 2.7-1.4V76c0-.6-.3-.9-.8-.9m.1 11q.6 0 .9-.6h1c-.2.9-.9 1.3-1.9 1.3-1.3 0-2-.8-2-2.2 0-1.2.8-2.1 2-2.1.7 0 1.3.3 1.5.8.2.4.3 1 .3 1.6h-2.9c.1.7.4 1.2 1.1 1.2m4.2.7c-1.1 0-1.8-.5-1.8-1.4h1c0 .5.3.7.9.7.4 0 .7-.2.7-.5 0-.4-.5-.5-1-.6-.7-.2-1.5-.3-1.5-1.2 0-.7.7-1.2 1.7-1.2 1.1 0 1.7.5 1.7 1.4h-.9c0-.5-.3-.7-.8-.7-.4 0-.7.2-.7.5 0 .4.6.5 1.2.7s1.3.4 1.3 1.2c-.1.6-.7 1.1-1.8 1.1m2.5-16.2h-3.3v-.7l2.3-2.6h-2.2v-.7h3.1v.7l-2.2 2.6h2.3zm1 16.1h-.9v-4.1h.9zm0-4.8h-.9v-1h.9zm4.6 4.2c0 1.3-.4 2.2-1.9 2.2-1 0-1.7-.5-1.7-1.3h1c0 .4.3.6.8.6.6 0 1-.4 1-1.2V86c-.3.4-.8.6-1.2.6-1 0-1.6-.8-1.6-2 0-1.1.7-2 1.7-2 .5 0 1 .2 1.2.6v-.5h.9v3.4zm-1.6-17.6c0-1.2.8-2.1 2-2.1.7 0 1.3.3 1.5.8.2.4.3 1 .3 1.6h-2.9c0 .7.4 1.2 1 1.2q.6 0 .9-.6h1c-.2.9-.9 1.3-1.9 1.3-1.2 0-1.9-.9-1.9-2.2m6.2 18.2h-.9v-2.3c0-.6-.1-1.1-.7-1.1s-.9.4-.9 1.4v2h-.9v-4.1h.9v.5c.3-.4.8-.6 1.3-.6.6 0 .9.2 1.1.6.2.3.2.7.2 1.2v2.4zm.9-19.4h-.4c-.8 0-1.1.5-1.1 1.5v1.8h-.9v-4.1h.9v.6c.3-.4.6-.6 1.1-.6h.4zM96.7 137c18.6-7 33.3-21.7 40.3-40.3H96.7z"
  />
  </g>
  <g  fill="#888">
  <path
    d="M142.3 72.3c0-8.1-1.4-16-4.1-23.5l-.2-.6-.1-.2A69.9 69.9 0 0 0 96.7 6.8l-.3-.1-.6-.2c-7.5-2.7-15.4-4.1-23.5-4.1s-16 1.4-23.5 4.1l-.5.2-.3.1c-19.2 7-34.2 22-41.3 41.1l-.1.3-.2.6c-2.7 7.5-4.1 15.4-4.1 23.5s1.4 16 4.1 23.5l.2.5.1.3a69.9 69.9 0 0 0 41.2 41.2l.3.1.6.2c7.5 2.7 15.4 4.1 23.5 4.1s16-1.4 23.5-4.1l.6-.2.2-.1a69.9 69.9 0 0 0 41.2-41.2l.1-.2v-.1l.2-.6c2.8-7.4 4.2-15.3 4.2-23.4M47.9 137c-18.6-7-33.3-21.7-40.3-40.3h40.3zm0-41.2H7.3c-2.7-7.5-4.1-15.4-4.1-23.5s1.4-16 4.1-23.5h40.6zm0-47.9H7.6c7-18.6 21.7-33.3 40.3-40.3zm47.9 89.4c-7.5 2.7-15.4 4.1-23.5 4.1s-16-1.4-23.5-4.1V96.7h47.1v40.6zm0-41.5h-47v-47h47.1v47zm0-47.9h-47V7.3c7.5-2.7 15.4-4.1 23.5-4.1s16 1.4 23.5 4.1zm.9-40.3c18.6 7 33.3 21.7 40.3 40.3H96.7zm0 129.4V96.7H137c-7 18.6-21.7 33.3-40.3 40.3m40.6-41.2H96.7v-47h40.6c2.7 7.5 4.1 15.4 4.1 23.5s-1.4 16-4.1 23.5"
  />
  <path
    d="M110.4 84.4c-.6-.2-1.2-.3-1.2-.7 0-.3.3-.5.7-.5.5 0 .8.2.8.7h.9c0-.9-.6-1.4-1.7-1.4-1 0-1.7.5-1.7 1.2 0 .9.8 1.1 1.5 1.2.5.1 1 .2 1 .6 0 .3-.3.5-.7.5-.6 0-.9-.2-.9-.7h-1c0 .9.7 1.4 1.8 1.4s1.7-.5 1.7-1.3c0-.6-.6-.9-1.2-1M101.9 83.1c-.3-.4-.7-.5-1.2-.5-1 0-1.7.8-1.7 2.1s.7 2.1 1.7 2.1c.5 0 1-.2 1.2-.6v.5h.9V81h-.9zM101 86c-.6 0-1-.5-1-1.4 0-.8.4-1.4 1-1.4s1 .5 1 1.4-.4 1.4-1 1.4M112.4 82.6h.9v4.1h-.9zM112.4 81h.9v1h-.9zM107.2 83.4c-.3-.5-.8-.8-1.5-.8-1.2 0-2 .9-2 2.1 0 1.3.7 2.2 2 2.2 1 0 1.6-.4 1.9-1.3h-1q-.15.6-.9.6c-.7 0-1-.5-1-1.2h2.9c0-.7-.1-1.2-.4-1.6m-2.5.9c.1-.7.5-1 1-1s.9.4 1 1zM117.2 83.2q-.45-.6-1.2-.6c-1 0-1.7.9-1.7 2 0 1.2.7 2 1.6 2q.75 0 1.2-.6v.4c0 .9-.3 1.2-1 1.2-.5 0-.8-.2-.8-.6h-1c.1.8.7 1.3 1.7 1.3 1.5 0 1.9-.9 1.9-2.2v-3.5h-.9v.6zm-1.1 2.6c-.6 0-.9-.5-.9-1.3 0-.7.4-1.3.9-1.3.6 0 1 .5 1 1.3 0 .9-.4 1.3-1 1.3M121.3 82.6c-.5 0-1 .2-1.3.6v-.5h-.9v4.1h.9v-2c0-1 .3-1.4.9-1.4s.7.5.7 1.1v2.3h.9v-2.3c0-.5-.1-.9-.2-1.2-.1-.5-.5-.7-1-.7M103.7 77.5c0 .8.5 1.2 1.4 1.2.6 0 1-.2 1.4-.6v.5h.9c-.1-.4-.1-.8-.1-1.3v-1.1c0-1.1-.4-1.8-1.7-1.8-1.1 0-1.7.5-1.8 1.3h1c0-.4.3-.7.8-.7s.7.3.7.8v.2c-1 .2-2.6.2-2.6 1.5m2.7-.6c0 .9-.4 1.2-1 1.2-.4 0-.7-.2-.7-.6 0-.7 1-.7 1.7-.8zM101.9 75c-.3-.4-.7-.5-1.2-.5-1 0-1.7.8-1.7 2.1s.7 2.1 1.7 2.1c.5 0 1-.2 1.2-.6v.5h.9v-5.7h-.9zm-.9 3c-.6 0-1-.5-1-1.4 0-.8.4-1.4 1-1.4s1 .5 1 1.4-.4 1.4-1 1.4M110.1 69.9l2.2-2.6v-.7h-3.1v.7h2.2l-2.3 2.6v.7h3.3v-.7h-1.3c-.2-.1-.8-.1-1 0M112.8 70.6h3.3v-.7h-2.3l2.2-2.6v-.7h-3.1v.7h2.2l-2.3 2.6zM104.2 70.6h1.1l1.4-4.1h-1l-.6 2-.3 1.2h-.1l-.3-1.2-.6-2h-1zM100.8 70c-.6 0-.9-.2-.9-.7h-1c0 .9.7 1.4 1.8 1.4s1.7-.5 1.7-1.3-.6-1-1.3-1.2c-.6-.2-1.2-.3-1.2-.7 0-.3.3-.5.7-.5.5 0 .8.2.8.7h.9c0-.9-.6-1.4-1.7-1.4-1 0-1.7.5-1.7 1.2 0 .9.8 1.1 1.5 1.2.5.1 1 .2 1 .6.2.5-.1.7-.6.7M107.4 66.5h.9v4.1h-.9zM120.3 69.3h-1q-.15.6-.9.6c-.7 0-1-.5-1-1.2h2.9c0-.6-.1-1.2-.3-1.6-.3-.5-.8-.8-1.5-.8-1.2 0-2 .9-2 2.1 0 1.3.7 2.2 2 2.2.9.1 1.6-.4 1.8-1.3m-1.9-2.2c.5 0 .9.4 1 1h-1.9c0-.7.4-1 .9-1M107.4 64.9h.9v1h-.9zM122 67.1v-.6h-.9v4.1h.9v-1.8c0-1 .3-1.5 1.1-1.5h.4v-.8h-.4c-.5 0-.8.2-1.1.6M118.6 56.8h.9v1h-.9zM118.6 58.4h.9v4.1h-.9zM112.5 60.5c0-.8.2-1.4.9-1.4.6 0 .7.5.7 1v2.4h.9v-2c0-.8.2-1.4.9-1.4.6 0 .7.5.7 1v2.4h.9V60c0-.5-.1-1-.3-1.2s-.5-.4-1-.4c-.6 0-1.1.2-1.4.7-.2-.5-.6-.7-1.1-.7s-1 .2-1.2.6v-.5h-.8v4.1h.9v-2.1zM100.4 60.4h.8q1.05 0 1.5-.3c.5-.3.8-.8.8-1.5s-.3-1.3-.8-1.5q-.6-.3-1.5-.3h-1.8v5.7h1zm0-2.8h.8c.3 0 .6 0 .8.1.3.2.5.5.5.8 0 .4-.1.7-.5.9-.2.1-.5.1-.9.1h-.8v-1.9zM105.1 60.7c0-1 .3-1.5 1.1-1.5h.4v-.8h-.4c-.5 0-.8.2-1.1.6v-.6h-.9v4.1h.9zM108.9 62.6c1 0 1.6-.4 1.9-1.3h-1q-.15.6-.9.6c-.7 0-1-.5-1-1.2h2.9c0-.6-.1-1.2-.3-1.6-.3-.5-.8-.8-1.5-.8-1.2 0-2 .9-2 2.1-.1 1.4.6 2.2 1.9 2.2m-.1-3.6c.5 0 .9.4 1 1h-1.9c0-.6.4-1 .9-1M66.2 126.5c0-1.1-.4-1.8-1.7-1.8-1.1 0-1.7.5-1.8 1.3h1c0-.4.3-.7.8-.7s.7.3.7.8v.2c-1 .1-2.7.1-2.7 1.4 0 .8.5 1.2 1.4 1.2.6 0 1-.2 1.4-.6v.5h.9c-.1-.4-.1-.8-.1-1.3v-1zm-.9.6c0 .9-.4 1.2-1 1.2-.4 0-.7-.2-.7-.6 0-.7 1-.7 1.7-.8zM61 126.9c-.1.4-.1.8-.2 1.2h-.1c-.1-.4-.1-.8-.2-1.2l-.5-2h-1.3l-.5 2c-.1.4-.2.8-.2 1.2h-.1c-.1-.4-.1-.8-.2-1.2l-.4-2h-1l1 4.1h1.2l.5-2 .3-1.3h.1c.1.4.2.8.3 1.3l.4 2h1.3l1-4.1h-.9zM68.1 125.4v-.6h-.9v4.1h.9v-1.8c0-1 .3-1.5 1.1-1.5h.4v-.8h-.4c-.5 0-.8.2-1.1.6M72.8 125.3c-.3-.4-.7-.5-1.2-.5-1 0-1.7.8-1.7 2.1s.7 2.1 1.7 2.1c.5 0 1-.2 1.2-.6v.5h.9v-5.7h-.9zm-.9 2.9c-.6 0-1-.5-1-1.4 0-.8.4-1.4 1-1.4s1 .5 1 1.4-.4 1.4-1 1.4M52.4 127.3h2.3l.5 1.5h1.1l-2.1-5.7H53l-2.1 5.7h1zm.6-1.7c.2-.5.4-1.1.5-1.6.1.5.3 1.1.5 1.6l.3.9h-1.7zM61.2 117.9c0 .9.8 1.1 1.5 1.2.5.1 1 .2 1 .6 0 .3-.3.5-.7.5-.6 0-.9-.2-.9-.7h-1c0 .9.7 1.4 1.8 1.4s1.7-.5 1.7-1.3-.6-1-1.3-1.2c-.6-.2-1.2-.3-1.2-.7 0-.3.3-.5.7-.5.5 0 .8.2.8.7h.9c0-.9-.6-1.4-1.7-1.4-1 .1-1.6.6-1.6 1.4M65.4 116.8h.9v4.1h-.9zM60.2 117.5c-.3-.5-.8-.8-1.5-.8-1.2 0-2 .9-2 2.1 0 1.3.7 2.2 2 2.2 1 0 1.6-.4 1.9-1.3h-1q-.15.6-.9.6c-.7 0-1-.5-1-1.2h2.9c-.1-.7-.1-1.2-.4-1.6m-2.6.9c.1-.7.5-1 1-1s.9.4 1 1zM54.7 115.4c-.4-.2-1-.3-1.6-.3h-1.7v5.7h1.8c1 0 1.8-.4 2.2-.9s.6-1.2.6-1.9c.1-1.3-.4-2.1-1.3-2.6m-.2 4.1c-.3.3-.8.4-1.4.4h-.6v-4.1h.6c.5 0 1 .1 1.3.3.5.3.7.9.7 1.7-.1.9-.3 1.4-.6 1.7M67.2 118.7c0 1.2.7 2 1.6 2q.75 0 1.2-.6v.4c0 .9-.3 1.2-1 1.2-.5 0-.8-.2-.8-.6h-1c.1.8.7 1.3 1.7 1.3 1.5 0 1.9-.9 1.9-2.2v-3.5h-.9v.5q-.45-.6-1.2-.6c-.8.1-1.5 1-1.5 2.1m1.9-1.3c.6 0 1 .5 1 1.3s-.4 1.2-1 1.2-.9-.5-.9-1.3c0-.7.3-1.2.9-1.2M73 118.8c0-1 .3-1.4.9-1.4s.7.5.7 1.1v2.3h.9v-2.3c0-.5-.1-.9-.2-1.2-.2-.3-.5-.6-1.1-.6-.5 0-1 .2-1.3.6v-.5H72v4.1h1zM65.4 115.1h.9v1h-.9zM62.5 107h.9v1h-.9zM58.1 112.7l.5-2 .3-1.3h.1c.1.4.2.8.3 1.3l.4 2H61l1-4.1h-1l-.4 2c-.1.4-.1.8-.2 1.2h-.1c-.1-.4-.1-.8-.2-1.2l-.5-2h-1.3l-.5 2c-.1.4-.2.8-.2 1.2h-.1c-.1-.4-.1-.8-.2-1.2l-.4-2h-1l1 4.1zM62.5 108.7h.9v4.1h-.9zM66.1 112.2c-.6 0-.9-.2-.9-.7h-1c0 .9.7 1.4 1.8 1.4s1.7-.5 1.7-1.3-.6-1-1.3-1.2c-.6-.2-1.2-.3-1.2-.7 0-.3.3-.5.7-.5.5 0 .8.2.8.7h.9c0-.9-.6-1.4-1.7-1.4-1 0-1.7.5-1.7 1.2 0 .9.8 1.1 1.5 1.2.5.1 1 .2 1 .6.1.5-.2.7-.6.7M53.4 112.1c-.8 0-1.2-.5-1.2-1.2h-1c0 1.3.9 2 2.3 2 1.3 0 2.2-.7 2.2-1.7s-.8-1.4-1.8-1.6c-1-.3-1.5-.5-1.5-1s.5-.8 1-.8c.6 0 1.1.4 1.1 1.1h1c0-1.2-.8-1.9-2.1-1.9s-2.1.7-2.1 1.6c0 1.2 1 1.4 1.9 1.7.7.2 1.3.4 1.3 1 0 .4-.5.8-1.1.8M70.1 112.2c-.6 0-.9-.2-.9-.7h-1c0 .9.7 1.4 1.8 1.4s1.7-.5 1.7-1.3-.6-1-1.3-1.2c-.6-.2-1.2-.3-1.2-.7 0-.3.3-.5.7-.5.5 0 .8.2.8.7h.9c0-.9-.6-1.4-1.7-1.4-1 0-1.7.5-1.7 1.2 0 .9.8 1.1 1.5 1.2.5.1 1 .2 1 .6.2.5-.1.7-.6.7M54 83.1c-.3-.4-.7-.5-1.2-.5-1 0-1.7.8-1.7 2.1s.7 2.1 1.7 2.1c.5 0 1-.2 1.2-.6v.5h1V81h-1zm-.9 2.9c-.6 0-1-.5-1-1.4 0-.8.4-1.4 1-1.4s1 .5 1 1.4c-.1.9-.4 1.4-1 1.4M64.5 82.6h.9v4.1h-.9zM62.4 84.4c-.6-.2-1.2-.3-1.2-.7 0-.3.3-.5.7-.5.5 0 .8.2.8.7h.9c0-.9-.6-1.4-1.7-1.4-1 0-1.7.5-1.7 1.2 0 .9.8 1.1 1.5 1.2.5.1 1 .2 1 .6 0 .3-.3.5-.7.5-.6 0-.9-.2-.9-.7h-1c0 .9.7 1.4 1.8 1.4s1.7-.5 1.7-1.3c.1-.6-.5-.9-1.2-1M64.5 81h.9v1h-.9zM59.3 83.4c-.3-.5-.8-.8-1.5-.8-1.2 0-2 .9-2 2.1 0 1.3.7 2.2 2 2.2 1 0 1.6-.4 1.9-1.3h-1q-.15.6-.9.6c-.7 0-1-.5-1-1.2h2.9c-.1-.7-.1-1.2-.4-1.6m-2.6.9c.1-.7.5-1 1-1s.9.4 1 1zM73.3 82.6c-.5 0-1 .2-1.3.6v-.5h-.9v4.1h.9v-2c0-1 .3-1.4.9-1.4s.7.5.7 1.1v2.3h.9v-2.3c0-.5-.1-.9-.2-1.2 0-.5-.4-.7-1-.7M69.2 83.2q-.45-.6-1.2-.6c-1 0-1.7.9-1.7 2 0 1.2.7 2 1.6 2q.75 0 1.2-.6v.4c0 .9-.3 1.2-1 1.2-.5 0-.8-.2-.8-.6h-1c.1.8.7 1.3 1.7 1.3 1.5 0 1.9-.9 1.9-2.2v-3.5H69v.6zm-1 2.6c-.6 0-.9-.5-.9-1.3 0-.7.4-1.3.9-1.3.6 0 1 .5 1 1.3 0 .9-.4 1.3-1 1.3M56 72.9h.9v1H56zM54 75c-.3-.4-.7-.5-1.2-.5-1 0-1.7.8-1.7 2.1s.7 2.1 1.7 2.1c.5 0 1-.2 1.2-.6v.5h1v-5.7h-1zm-.9 3c-.6 0-1-.5-1-1.4 0-.8.4-1.4 1-1.4s1 .5 1 1.4c-.1.9-.4 1.4-1 1.4M56 74.6h.9v4.1H56zM56.3 70.6h1.1l1.4-4.1h-1l-.6 2-.3 1.2h-.1l-.3-1.2-.6-2h-1zM68.5 68.5c0 1.3.7 2.2 2 2.2 1 0 1.6-.4 1.9-1.3h-1q-.15.6-.9.6c-.7 0-1-.5-1-1.2h2.9c0-.6-.1-1.2-.3-1.6-.3-.5-.8-.8-1.5-.8-1.3 0-2.1.9-2.1 2.1m2-1.4c.5 0 .9.4 1 1h-1.9c-.1-.7.3-1 .9-1M59.5 64.9h.9v1h-.9zM59.5 66.5h.9v4.1h-.9zM52.9 70c-.6 0-.9-.2-.9-.7h-1c0 .9.7 1.4 1.8 1.4s1.7-.5 1.7-1.3-.6-1-1.3-1.2c-.6-.2-1.2-.3-1.2-.7 0-.3.3-.5.7-.5.5 0 .8.2.8.7h.9c0-.9-.6-1.4-1.7-1.4-1 0-1.7.5-1.7 1.2 0 .9.8 1.1 1.5 1.2.5.1 1 .2 1 .6.1.5-.1.7-.6.7M64.8 70.6h3.3v-.7h-2.3l2.2-2.6v-.7h-3.1v.7h2.2l-2.3 2.6zM62.1 69.9l2.2-2.6v-.7h-3.1v.7h2.2l-2.3 2.6v.7h3.3v-.7h-1.3c-.1-.1-.8-.1-1 0M74.1 67.1v-.6h-.9v4.1h.9v-1.8c0-1 .3-1.5 1.1-1.5h.4v-.8h-.4c-.5 0-.9.2-1.1.6M77.9 70.7c1.2 0 2-.9 2-2.1 0-1.3-.8-2.1-2-2.1s-2 .9-2 2.1.8 2.1 2 2.1m0-3.6c.7 0 1 .5 1 1.4s-.4 1.4-1.1 1.4-1-.6-1-1.4c.1-.8.5-1.4 1.1-1.4M52.4 60.4h.8q1.05 0 1.5-.3c.5-.3.8-.8.8-1.5s-.3-1.3-.8-1.5q-.6-.3-1.5-.3h-1.8v5.7h1zm0-2.8h.8c.3 0 .6 0 .8.1.3.2.5.5.5.8 0 .4-.1.7-.5.9-.2.1-.5.1-.9.1h-.8v-1.9zM61 62.6c1 0 1.6-.4 1.9-1.3h-1q-.15.6-.9.6c-.7 0-1-.5-1-1.2h2.9c0-.6-.1-1.2-.3-1.6-.3-.5-.8-.8-1.5-.8-1.2 0-2 .9-2 2.1-.1 1.4.6 2.2 1.9 2.2m-.1-3.6c.5 0 .9.4 1 1H60c0-.6.4-1 .9-1M64.6 60.5c0-.8.2-1.4.9-1.4.6 0 .7.5.7 1v2.4h.9v-2c0-.8.2-1.4.9-1.4.6 0 .7.5.7 1v2.4h.9V60c0-.5-.1-1-.3-1.2s-.5-.4-1-.4c-.6 0-1.1.2-1.4.7-.2-.5-.6-.7-1.1-.7s-1 .2-1.2.6v-.5h-.8v4.1h.9v-2.1zM70.6 56.8h.9v1h-.9zM74.4 62.6c1.2 0 2-.9 2-2.1 0-1.3-.8-2.1-2-2.1s-2 .9-2 2.1.8 2.1 2 2.1m0-3.6c.7 0 1 .5 1 1.4s-.4 1.4-1.1 1.4-1-.6-1-1.4c.1-.8.5-1.4 1.1-1.4M57.2 60.7c0-1 .3-1.5 1.1-1.5h.4v-.8h-.4c-.5 0-.8.2-1.1.6v-.6h-.9v4.1h.9zM70.6 58.4h.9v4.1h-.9zM25.4 83.2q-.45-.6-1.2-.6c-1 0-1.7.9-1.7 2 0 1.2.7 2 1.6 2q.75 0 1.2-.6v.4c0 .9-.3 1.2-1 1.2-.5 0-.8-.2-.8-.6h-1c.1.8.7 1.3 1.7 1.3 1.5 0 1.9-.9 1.9-2.2v-3.5h-.9v.6zm-1.1 2.6c-.6 0-.9-.5-.9-1.3 0-.7.4-1.3.9-1.3.6 0 1 .5 1 1.3 0 .9-.4 1.3-1 1.3M15.4 83.4c-.3-.5-.8-.8-1.5-.8-1.2 0-2 .9-2 2.1 0 1.3.7 2.2 2 2.2 1 0 1.6-.4 1.9-1.3h-1q-.15.6-.9.6c-.7 0-1-.5-1-1.2h2.9c0-.7-.1-1.2-.4-1.6m-2.5.9c.1-.7.5-1 1-1s.9.4 1 1zM10.1 83.1c-.3-.4-.7-.5-1.2-.5-1 0-1.7.8-1.7 2.1s.7 2.1 1.7 2.1c.5 0 1-.2 1.2-.6v.5h.9V81h-.9zM9.2 86c-.6 0-1-.5-1-1.4 0-.8.4-1.4 1-1.4s1 .5 1 1.4-.4 1.4-1 1.4M20.6 82.6h.9v4.1h-.9zM20.6 81h.9v1h-.9zM18.6 84.4c-.6-.2-1.2-.3-1.2-.7 0-.3.3-.5.7-.5.5 0 .8.2.8.7h.9c0-.9-.6-1.4-1.7-1.4-1 0-1.7.5-1.7 1.2 0 .9.8 1.1 1.5 1.2.5.1 1 .2 1 .6 0 .3-.3.5-.7.5-.6 0-.9-.2-.9-.7h-1c0 .9.7 1.4 1.8 1.4s1.7-.5 1.7-1.3c0-.6-.6-.9-1.2-1M28.2 83.2v-.5h-.9v4.1h.9v-2c0-1 .3-1.4.9-1.4s.7.5.7 1.1v2.3h.9v-2.3c0-.5-.1-.9-.2-1.2-.2-.3-.5-.6-1.1-.6-.4-.1-.9 0-1.2.5M10.1 75c-.3-.4-.7-.5-1.2-.5-1 0-1.7.8-1.7 2.1s.7 2.1 1.7 2.1c.5 0 1-.2 1.2-.6v.5h.9v-5.7h-.9zm-.9 3c-.6 0-1-.5-1-1.4 0-.8.4-1.4 1-1.4s1 .5 1 1.4-.4 1.4-1 1.4M11.9 76.6c0 1.3.7 2.2 2 2.2 1 0 1.6-.4 1.9-1.3h-1q-.15.6-.9.6c-.7 0-1-.5-1-1.2h2.9c0-.6-.1-1.2-.3-1.6-.3-.5-.8-.8-1.5-.8-1.3 0-2.1.9-2.1 2.1m2.9-.4h-1.9c.1-.7.5-1 1-1 .5-.1.9.3.9 1M19.6 67.1c.5 0 .8.2.8.7h.9c0-.9-.6-1.4-1.7-1.4-1 0-1.7.5-1.7 1.2 0 .9.8 1.1 1.5 1.2.5.1 1 .2 1 .6 0 .3-.3.5-.7.5-.6 0-.9-.2-.9-.7h-1c0 .9.7 1.4 1.8 1.4s1.7-.5 1.7-1.3-.6-1-1.3-1.2c-.6-.2-1.2-.3-1.2-.7.1-.2.4-.3.8-.3M16.1 66.5h.9v4.1h-.9zM16.1 64.9h.9v1h-.9zM23.7 70c-.6 0-.9-.2-.9-.7h-1c0 .9.7 1.4 1.8 1.4s1.7-.5 1.7-1.3-.6-1-1.3-1.2c-.6-.2-1.2-.3-1.2-.7 0-.3.3-.5.7-.5.5 0 .8.2.8.7h.9c0-.9-.6-1.4-1.7-1.4-1 0-1.7.5-1.7 1.2 0 .9.8 1.1 1.5 1.2.5.1 1 .2 1 .6.1.5-.1.7-.6.7M27.9 70.7c1 0 1.6-.4 1.9-1.3h-1q-.15.6-.9.6c-.7 0-1-.5-1-1.2h2.9c0-.6-.1-1.2-.3-1.6-.3-.5-.8-.8-1.5-.8-1.2 0-2 .9-2 2.1 0 1.3.6 2.2 1.9 2.2m0-3.6c.5 0 .9.4 1 1H27c0-.7.4-1 .9-1M8.8 68.8c.5.1 1 .2 1 .6s-.3.6-.8.6c-.6 0-.9-.2-.9-.7h-1c0 .9.7 1.4 1.8 1.4s1.7-.5 1.7-1.3-.6-1-1.3-1.2c-.6-.2-1.2-.3-1.2-.7 0-.3.3-.5.7-.5.5 0 .8.2.8.7h.9c0-.9-.6-1.4-1.7-1.4-1 0-1.7.5-1.7 1.2.2 1 1 1.2 1.7 1.3M14.1 68.6c0 .5-.1.8-.3 1s-.4.3-.7.3c-.7 0-.7-.5-.7-1.1v-2.3h-.9v2.3c0 .6 0 1 .2 1.3.3.3.6.5 1.1.5s1-.2 1.3-.6v.5h.9v-4.1h-.9zM18 62.5l.6-1c.1-.1.3-.4.3-.5 0 .1.2.5.3.6l.5.9h1.1l-1.4-2.1 1.3-2h-1l-.5.9c-.1.1-.2.4-.2.5-.1-.1-.1-.3-.2-.4l-.5-.9H17l1.3 2-1.4 2.1H18zM15.4 56.8h.9v1h-.9zM15.4 58.4h.9v4.1h-.9zM8.6 60.4h.8q1.05 0 1.5-.3c.5-.3.8-.8.8-1.5s-.3-1.3-.8-1.5q-.6-.3-1.5-.3H7.6v5.7h1zm0-2.8h.8c.3 0 .6 0 .8.1.3.2.5.5.5.8 0 .4-.1.7-.5.9-.2.1-.5.1-.9.1h-.7zM13.3 60.7c0-1 .3-1.5 1.1-1.5h.4v-.8h-.4c-.5 0-.8.2-1.1.6v-.6h-.9v4.1h.9zM63 30.1c-.6-.2-1.2-.3-1.2-.7 0-.3.3-.5.7-.5.5 0 .8.2.8.7h.9c0-.9-.6-1.4-1.7-1.4-1 0-1.7.5-1.7 1.2 0 .9.8 1.1 1.5 1.2.5.1 1 .2 1 .6 0 .3-.3.5-.7.5-.6 0-.9-.2-.9-.7h-1c0 .9.7 1.4 1.8 1.4s1.7-.5 1.7-1.3c.1-.6-.6-.9-1.2-1M65 28.4h.9v4.1H65zM65 26.7h.9v1H65zM59.9 29.1c-.3-.5-.8-.8-1.5-.8-1.2 0-2 .9-2 2.1 0 1.3.7 2.2 2 2.2 1 0 1.6-.4 1.9-1.3h-1q-.15.6-.9.6c-.7 0-1-.5-1-1.2h2.9c0-.7-.1-1.2-.4-1.6m-2.5.9c.1-.7.5-1 1-1s.9.4 1 1zM54.5 27c-.4-.2-1-.3-1.6-.3h-1.7v5.7H53c1 0 1.8-.4 2.2-.9s.6-1.2.6-1.9c.1-1.3-.4-2.2-1.3-2.6m-.2 4.1c-.3.3-.8.4-1.4.4h-.6v-4.1h.6c.5 0 1 .1 1.3.3.5.3.7.9.7 1.7-.1.9-.3 1.4-.6 1.7M73.6 28.3c-.5 0-1 .2-1.3.6v-.5h-.9v4.1h.9v-2c0-1 .3-1.4.9-1.4s.7.5.7 1.1v2.3H75v-2.3c0-.5-.1-.9-.2-1.2-.2-.5-.6-.7-1.2-.7M91.3 31.8c-.6 0-.9-.2-.9-.7h-1c0 .9.7 1.4 1.8 1.4s1.7-.5 1.7-1.3-.6-1-1.3-1.2c-.6-.2-1.2-.3-1.2-.7 0-.3.3-.5.7-.5.5 0 .8.2.8.7h.9c0-.9-.6-1.4-1.7-1.4-1 0-1.7.5-1.7 1.2 0 .9.8 1.1 1.5 1.2.5.1 1 .2 1 .6.1.6-.2.7-.6.7M83.2 30.4c0 1.3.7 2.2 2 2.2 1 0 1.6-.4 1.9-1.3h-1q-.15.6-.9.6c-.7 0-1-.5-1-1.2h2.9c0-.6-.1-1.2-.3-1.6-.3-.5-.8-.8-1.5-.8-1.3-.1-2.1.8-2.1 2.1m1.9-1.5c.5 0 .9.4 1 1h-1.9c0-.6.4-1 .9-1M87.8 28.4h.9v4.1h-.9zM87.8 26.7h.9v1h-.9zM69.6 28.9q-.45-.6-1.2-.6c-1 0-1.7.9-1.7 2 0 1.2.7 2 1.6 2q.75 0 1.2-.6v.4c0 .9-.3 1.2-1 1.2-.5 0-.8-.2-.8-.6h-1c.1.8.7 1.3 1.7 1.3 1.5 0 1.9-.9 1.9-2.2v-3.5h-.9v.6zm-1 2.7c-.6 0-.9-.5-.9-1.3 0-.7.4-1.3.9-1.3.6 0 1 .5 1 1.3s-.4 1.3-1 1.3M76 28.4V34h.9v-2c.3.4.7.5 1.2.5 1 0 1.7-.8 1.7-2.1s-.7-2.1-1.7-2.1c-.5 0-1 .2-1.3.6v-.5zm1.9.6c.6 0 1 .5 1 1.4s-.4 1.4-1 1.4-1-.5-1-1.4.4-1.4 1-1.4M81.5 30.6c0-1 .3-1.5 1.1-1.5h.4v-.8h-.4c-.5 0-.8.2-1.1.6v-.6h-.9v4.1h.9zM82.8 24.4c1 0 1.6-.4 1.9-1.3h-1q-.15.6-.9.6c-.7 0-1-.5-1-1.2h2.9c0-.6-.1-1.2-.3-1.6-.3-.5-.8-.8-1.5-.8-1.2 0-2 .9-2 2.1-.1 1.4.6 2.2 1.9 2.2m-.1-3.5c.5 0 .9.4 1 1h-1.9c0-.7.4-1 .9-1M86.4 22.6c0-1 .3-1.5 1.1-1.5h.4v-.8h-.4c-.5 0-.8.2-1.1.6v-.6h-.9v4.1h.9zM53.2 23.7c-.8 0-1.2-.5-1.2-1.2h-1c0 1.3.9 2 2.3 2 1.3 0 2.2-.7 2.2-1.7s-.8-1.4-1.8-1.6c-1-.3-1.5-.5-1.5-1s.5-.8 1-.8c.6 0 1.1.4 1.1 1.1h1c0-1.2-.8-1.9-2.1-1.9s-2.2.6-2.2 1.5c0 1.2 1 1.4 1.9 1.7.7.2 1.3.4 1.3 1 .1.5-.4.9-1 .9M80.4 23.6h-2.3l2.2-2.6v-.7h-3.1v.7h2.2l-2.3 2.6v.7h3.3zM66.7 24.3l.5-2 .3-1.3h.1c.1.4.2.8.3 1.3l.4 2h1.3l1-4.1h-.9l-.4 2c-.1.4-.1.8-.2 1.2H69c-.1-.4-.1-.8-.2-1.2l-.5-2H67l-.5 2c-.1.4-.2.8-.2 1.2h-.1c-.1-.4-.1-.8-.2-1.2l-.4-2h-1l1 4.1zM59.6 22.9h-1c-.1.5-.4.8-.8.8-.6 0-1-.6-1-1.4s.4-1.4 1-1.4c.5 0 .8.3.8.8h1c-.1-.9-.7-1.5-1.8-1.5-1.2 0-1.9.9-1.9 2.1 0 1.3.7 2.1 1.9 2.1 1 .1 1.7-.5 1.8-1.5M75.5 20.3h.9v4.1h-.9zM61.3 22.3c0-1 .3-1.4.9-1.4s.7.5.7 1.1v2.3h.9V22c0-.6 0-1-.2-1.3-.2-.4-.6-.5-1.2-.5q-.75 0-1.2.6v-2.2h-.9v5.7h.9v-2zM75.5 18.6h.9v1h-.9zM70.8 22.3c0 1.3.7 2.2 2 2.2 1 0 1.6-.4 1.9-1.3h-1q-.15.6-.9.6c-.7 0-1-.5-1-1.2h2.9c0-.6-.1-1.2-.3-1.6-.3-.5-.8-.8-1.5-.8-1.3 0-2.1.9-2.1 2.1m1.9-1.4c.5 0 .9.4 1 1h-1.9c0-.7.4-1 .9-1"
  />
  </g>
</svg>
